<svg xmlns="http://www.w3.org/2000/svg" viewBox="0 0 404 69"><defs><style>.cls-1{fill:#738fab;}.cls-2{fill:#d9e0e8;}.cls-3{fill:#036;}</style></defs><g id="bbsr_en"><polygon class="cls-1" points="55 1 16 1 16 10.98 45.02 10.98 45.02 40 55 40 55 1"/><polygon class="cls-2" points="16 17 1 17 1 55 39 55 39 40 16 40 16 17"/><rect class="cls-1" x="16" y="17" width="23" height="23"/><path class="cls-3" d="M77.35,15.68H75.77V2.12h7.56v1.4h-6v5H83v1.4H77.35Z"/><path class="cls-3" d="M89.45,15.87a4.63,4.63,0,0,1-3.55-1.38,5.29,5.29,0,0,1-1.31-3.81,5.91,5.91,0,0,1,1.21-3.9,4,4,0,0,1,3.25-1.45,3.86,3.86,0,0,1,3,1.25A4.84,4.84,0,0,1,93.19,9.9v1h-7a4,4,0,0,0,.9,2.71,3.14,3.14,0,0,0,2.42.93,8.35,8.35,0,0,0,3.25-.68v1.37a8.4,8.4,0,0,1-1.55.5A8.06,8.06,0,0,1,89.45,15.87ZM89,6.62a2.51,2.51,0,0,0-2,.8,3.64,3.64,0,0,0-.85,2.2h5.31a3.41,3.41,0,0,0-.65-2.23A2.29,2.29,0,0,0,89,6.62Z"/><path class="cls-3" d="M102.55,14.32h-.08a3.65,3.65,0,0,1-3.2,1.55,3.77,3.77,0,0,1-3.1-1.37,6,6,0,0,1-1.11-3.87,6.07,6.07,0,0,1,1.12-3.91,4.13,4.13,0,0,1,6.27.11h.12l-.07-.73,0-.72V1.25H104V15.68h-1.26Zm-3.08.26a2.83,2.83,0,0,0,2.29-.86,4.36,4.36,0,0,0,.71-2.77v-.32a5.11,5.11,0,0,0-.72-3.09,2.76,2.76,0,0,0-2.3-.92,2.36,2.36,0,0,0-2.07,1,5.21,5.21,0,0,0-.72,3,5.06,5.06,0,0,0,.71,2.94A2.42,2.42,0,0,0,99.47,14.58Z"/><path class="cls-3" d="M111.38,15.87a4.65,4.65,0,0,1-3.56-1.38,5.29,5.29,0,0,1-1.3-3.81,5.85,5.85,0,0,1,1.21-3.9A4,4,0,0,1,111,5.33a3.85,3.85,0,0,1,3,1.25,4.85,4.85,0,0,1,1.12,3.32v1h-7a4,4,0,0,0,.91,2.71,3.1,3.1,0,0,0,2.41.93,8.31,8.31,0,0,0,3.25-.68v1.37a8.4,8.4,0,0,1-1.55.5A8,8,0,0,1,111.38,15.87ZM111,6.62a2.47,2.47,0,0,0-1.95.8,3.58,3.58,0,0,0-.86,2.2h5.31a3.35,3.35,0,0,0-.65-2.23A2.29,2.29,0,0,0,111,6.62Z"/><path class="cls-3" d="M122.19,5.33a6.43,6.43,0,0,1,1.22.11l-.22,1.43a5.42,5.42,0,0,0-1.11-.14,2.7,2.7,0,0,0-2.11,1,3.64,3.64,0,0,0-.88,2.5v5.45h-1.54V5.51h1.27L119,7.4h.07a4.45,4.45,0,0,1,1.37-1.53A3,3,0,0,1,122.19,5.33Z"/><path class="cls-3" d="M131.37,15.68l-.31-1.45H131a4.3,4.3,0,0,1-1.52,1.3,4.7,4.7,0,0,1-1.89.34,3.42,3.42,0,0,1-2.37-.78,2.85,2.85,0,0,1-.85-2.22q0-3.07,4.92-3.23L131,9.59V9a2.55,2.55,0,0,0-.52-1.77,2.1,2.1,0,0,0-1.64-.57A6.71,6.71,0,0,0,126,7.4l-.47-1.18a7.17,7.17,0,0,1,1.64-.64,7,7,0,0,1,1.8-.23,3.89,3.89,0,0,1,2.69.8,3.35,3.35,0,0,1,.88,2.59v6.94Zm-3.48-1.08a3.16,3.16,0,0,0,2.26-.79A2.91,2.91,0,0,0,131,11.6v-.92l-1.54.07a5.54,5.54,0,0,0-2.65.57,1.71,1.71,0,0,0-.81,1.57,1.57,1.57,0,0,0,.51,1.27A2.07,2.07,0,0,0,127.89,14.6Z"/><path class="cls-3" d="M137,15.68h-1.54V1.25H137Z"/><path class="cls-3" d="M145.09,15.68V2.12h1.57V15.68Z"/><path class="cls-3" d="M156.92,15.68V9.1a2.64,2.64,0,0,0-.57-1.85,2.27,2.27,0,0,0-1.77-.61,2.92,2.92,0,0,0-2.34.86,4.37,4.37,0,0,0-.74,2.85v5.33H150V5.51h1.25l.25,1.4h.08a3.1,3.1,0,0,1,1.33-1.17,4.34,4.34,0,0,1,1.9-.41,3.86,3.86,0,0,1,2.76.88,3.78,3.78,0,0,1,.93,2.84v6.63Z"/><path class="cls-3" d="M168,12.91a2.57,2.57,0,0,1-1.05,2.19,5,5,0,0,1-3,.77,6.57,6.57,0,0,1-3.16-.64V13.8a7.55,7.55,0,0,0,1.57.58,6.24,6.24,0,0,0,1.62.22,3.63,3.63,0,0,0,1.86-.39,1.28,1.28,0,0,0,.65-1.17,1.26,1.26,0,0,0-.52-1,8.32,8.32,0,0,0-2-1,10.9,10.9,0,0,1-2-.92,2.7,2.7,0,0,1-.89-.89,2.32,2.32,0,0,1-.3-1.2,2.27,2.27,0,0,1,1-2,4.67,4.67,0,0,1,2.77-.72,8.07,8.07,0,0,1,3.21.67l-.55,1.25a7.35,7.35,0,0,0-2.77-.63,3.17,3.17,0,0,0-1.65.34,1.08,1.08,0,0,0-.56,1,1.13,1.13,0,0,0,.21.69,2,2,0,0,0,.67.55,16,16,0,0,0,1.78.75,6.65,6.65,0,0,1,2.45,1.33A2.33,2.33,0,0,1,168,12.91Z"/><path class="cls-3" d="M173.59,14.6a5.06,5.06,0,0,0,.79-.06,5.85,5.85,0,0,0,.6-.13v1.18a2.64,2.64,0,0,1-.73.2,6,6,0,0,1-.88.08q-3,0-3-3.11v-6H169V6l1.46-.64.65-2.17H172V5.51h2.95v1.2H172v6a2,2,0,0,0,.44,1.41A1.5,1.5,0,0,0,173.59,14.6Z"/><path class="cls-3" d="M176.7,2.76A1,1,0,0,1,177,2a.89.89,0,0,1,.64-.24.91.91,0,0,1,.65.25,1,1,0,0,1,.26.77,1.05,1.05,0,0,1-.26.77.92.92,0,0,1-.65.26.87.87,0,0,1-.64-.26A1,1,0,0,1,176.7,2.76Zm1.67,12.92h-1.54V5.51h1.54Z"/><path class="cls-3" d="M184.72,14.6a5,5,0,0,0,.79-.06,5.57,5.57,0,0,0,.61-.13v1.18a2.84,2.84,0,0,1-.74.2,6,6,0,0,1-.88.08c-2,0-2.95-1-2.95-3.11v-6H180.1V6l1.45-.64.65-2.17h.89V5.51H186v1.2h-2.95v6a2,2,0,0,0,.44,1.41A1.51,1.51,0,0,0,184.72,14.6Z"/><path class="cls-3" d="M189.41,5.51v6.6A2.65,2.65,0,0,0,190,14a2.34,2.34,0,0,0,1.77.61,2.91,2.91,0,0,0,2.34-.87,4.45,4.45,0,0,0,.73-2.85V5.51h1.54V15.68h-1.27l-.22-1.36h-.08a3.15,3.15,0,0,1-1.32,1.15,4.47,4.47,0,0,1-1.91.4,3.93,3.93,0,0,1-2.78-.88,3.74,3.74,0,0,1-.92-2.82V5.51Z"/><path class="cls-3" d="M202.71,14.6a5,5,0,0,0,.79-.06,5.57,5.57,0,0,0,.61-.13v1.18a2.84,2.84,0,0,1-.74.2,6,6,0,0,1-.88.08q-3,0-3-3.11v-6h-1.46V6l1.46-.64.65-2.17h.89V5.51H204v1.2h-2.95v6a2,2,0,0,0,.44,1.41A1.51,1.51,0,0,0,202.71,14.6Z"/><path class="cls-3" d="M210.24,15.87a4.67,4.67,0,0,1-3.56-1.38,5.33,5.33,0,0,1-1.3-3.81,5.91,5.91,0,0,1,1.21-3.9,4,4,0,0,1,3.25-1.45,3.86,3.86,0,0,1,3,1.25A4.84,4.84,0,0,1,214,9.9v1h-7a4,4,0,0,0,.9,2.71,3.13,3.13,0,0,0,2.42.93,8.35,8.35,0,0,0,3.25-.68v1.37a8.4,8.4,0,0,1-1.55.5A8.06,8.06,0,0,1,210.24,15.87Zm-.41-9.25a2.51,2.51,0,0,0-2,.8,3.71,3.71,0,0,0-.86,2.2h5.32a3.41,3.41,0,0,0-.65-2.23A2.29,2.29,0,0,0,209.83,6.62Z"/><path class="cls-3" d="M225.75,6.71h-2.59v9h-1.54v-9H219.8V6l1.82-.55V4.89q0-3.75,3.27-3.75a6.71,6.71,0,0,1,1.9.33l-.4,1.23a5.14,5.14,0,0,0-1.53-.28,1.45,1.45,0,0,0-1.28.58,3.18,3.18,0,0,0-.42,1.85v.66h2.59Z"/><path class="cls-3" d="M236.19,10.59a5.62,5.62,0,0,1-1.25,3.88,4.43,4.43,0,0,1-3.47,1.4,4.68,4.68,0,0,1-2.42-.64,4.24,4.24,0,0,1-1.63-1.84,6.45,6.45,0,0,1-.57-2.8,5.62,5.62,0,0,1,1.24-3.88,4.41,4.41,0,0,1,3.45-1.38,4.29,4.29,0,0,1,3.39,1.42A5.55,5.55,0,0,1,236.19,10.59Zm-7.75,0a4.82,4.82,0,0,0,.78,3,3.09,3.09,0,0,0,4.59,0,4.82,4.82,0,0,0,.78-3,4.76,4.76,0,0,0-.78-2.95,2.76,2.76,0,0,0-2.32-1,2.72,2.72,0,0,0-2.28,1A4.8,4.8,0,0,0,228.44,10.59Z"/><path class="cls-3" d="M243.34,5.33a6.32,6.32,0,0,1,1.21.11l-.21,1.43a5.43,5.43,0,0,0-1.12-.14,2.71,2.71,0,0,0-2.11,1,3.68,3.68,0,0,0-.87,2.5v5.45H238.7V5.51H240l.17,1.89h.08a4.53,4.53,0,0,1,1.36-1.53A3.07,3.07,0,0,1,243.34,5.33Z"/><path class="cls-3" d="M78.49,34.48v5.2H75.62V26.12h3.95a6.77,6.77,0,0,1,4.09,1A3.62,3.62,0,0,1,85,30.18a3.59,3.59,0,0,1-.66,2.13,4.34,4.34,0,0,1-1.87,1.46q3.06,4.57,4,5.91H83.26L80,34.48Zm0-2.34h.93a3.47,3.47,0,0,0,2-.46,1.59,1.59,0,0,0,.65-1.42,1.5,1.5,0,0,0-.66-1.38,4.06,4.06,0,0,0-2.06-.41h-.87Z"/><path class="cls-3" d="M92.44,39.87a5.31,5.31,0,0,1-3.91-1.39,5.22,5.22,0,0,1-1.41-3.91,5.75,5.75,0,0,1,1.3-4A4.64,4.64,0,0,1,92,29.11a4.57,4.57,0,0,1,3.43,1.26,4.76,4.76,0,0,1,1.22,3.46V35.2H90a2.7,2.7,0,0,0,.72,1.88,2.47,2.47,0,0,0,1.87.68,7.69,7.69,0,0,0,1.77-.19,8.64,8.64,0,0,0,1.75-.63v2.19a6.67,6.67,0,0,1-1.59.56A10,10,0,0,1,92.44,39.87ZM92,31.13a1.79,1.79,0,0,0-1.41.57,2.64,2.64,0,0,0-.58,1.62h4a2.36,2.36,0,0,0-.55-1.62A1.85,1.85,0,0,0,92,31.13Z"/><path class="cls-3" d="M106,36.6A2.84,2.84,0,0,1,104.91,39a5.45,5.45,0,0,1-3.32.84,9.81,9.81,0,0,1-1.93-.16,7,7,0,0,1-1.49-.45V36.93a10.88,10.88,0,0,0,1.78.62,7.58,7.58,0,0,0,1.74.25c1,0,1.54-.3,1.54-.89a.72.72,0,0,0-.21-.54,2.93,2.93,0,0,0-.7-.48c-.34-.17-.78-.38-1.34-.62a8.58,8.58,0,0,1-1.76-.92,2.66,2.66,0,0,1-.81-1A3.23,3.23,0,0,1,98.15,32a2.48,2.48,0,0,1,1.07-2.14,5.27,5.27,0,0,1,3-.76,8.7,8.7,0,0,1,3.65.82l-.86,2c-.52-.22-1-.4-1.45-.55a4.68,4.68,0,0,0-1.39-.21c-.83,0-1.25.23-1.25.68a.81.81,0,0,0,.41.66,10.56,10.56,0,0,0,1.76.82,8.7,8.7,0,0,1,1.79.92,2.83,2.83,0,0,1,.83,1A3.07,3.07,0,0,1,106,36.6Z"/><path class="cls-3" d="M112.73,39.87a5.31,5.31,0,0,1-3.91-1.39,5.22,5.22,0,0,1-1.41-3.91,5.75,5.75,0,0,1,1.3-4,4.64,4.64,0,0,1,3.6-1.43,4.57,4.57,0,0,1,3.43,1.26A4.76,4.76,0,0,1,117,33.83V35.2h-6.69a2.7,2.7,0,0,0,.72,1.88,2.47,2.47,0,0,0,1.87.68,7.69,7.69,0,0,0,1.77-.19,8.64,8.64,0,0,0,1.75-.63v2.19a6.67,6.67,0,0,1-1.59.56A10,10,0,0,1,112.73,39.87Zm-.4-8.74a1.79,1.79,0,0,0-1.41.57,2.64,2.64,0,0,0-.58,1.62h4a2.36,2.36,0,0,0-.55-1.62A1.85,1.85,0,0,0,112.33,31.13Z"/><path class="cls-3" d="M125.66,39.68l-.55-1.41H125a4.23,4.23,0,0,1-1.47,1.25,4.79,4.79,0,0,1-2,.35,3.21,3.21,0,0,1-2.36-.86,3.28,3.28,0,0,1-.85-2.43,2.72,2.72,0,0,1,1.15-2.43,6.65,6.65,0,0,1,3.48-.87l1.8-.06v-.45a1.41,1.41,0,0,0-1.61-1.58,7.36,7.36,0,0,0-2.92.75L119.35,30a8.48,8.48,0,0,1,4-.93,4.92,4.92,0,0,1,3.2.91,3.35,3.35,0,0,1,1.12,2.76v6.91Zm-.84-4.8-1.09,0a3.59,3.59,0,0,0-1.84.45,1.39,1.39,0,0,0-.6,1.24c0,.8.46,1.2,1.37,1.2a2.19,2.19,0,0,0,1.58-.57,2,2,0,0,0,.58-1.5Z"/><path class="cls-3" d="M136.15,29.11a4.19,4.19,0,0,1,.95.09l-.21,2.65a3.37,3.37,0,0,0-.84-.09,3,3,0,0,0-2.11.69,2.55,2.55,0,0,0-.75,1.95v5.28h-2.83V29.31h2.14l.42,1.74h.14a3.8,3.8,0,0,1,1.3-1.4A3.19,3.19,0,0,1,136.15,29.11Z"/><path class="cls-3" d="M143,39.87q-4.84,0-4.84-5.32a5.66,5.66,0,0,1,1.31-4,5,5,0,0,1,3.78-1.4,7.23,7.23,0,0,1,3.23.71L145.65,32a12.55,12.55,0,0,0-1.24-.44,3.82,3.82,0,0,0-1.15-.17c-1.47,0-2.21,1-2.21,3.13s.74,3,2.21,3a5.2,5.2,0,0,0,1.51-.22,5.57,5.57,0,0,0,1.39-.68V39.1a4.6,4.6,0,0,1-1.38.6A7.91,7.91,0,0,1,143,39.87Z"/><path class="cls-3" d="M158,39.68h-2.83V33.62c0-1.49-.56-2.24-1.67-2.24a1.91,1.91,0,0,0-1.72.81,4.94,4.94,0,0,0-.52,2.61v4.88h-2.83V25.25h2.83v2.94c0,.23,0,.76-.07,1.61l-.06.84h.14a3.28,3.28,0,0,1,3-1.53,3.65,3.65,0,0,1,2.77,1,3.89,3.89,0,0,1,.95,2.82Z"/><path class="cls-3" d="M174.84,34.48a5.56,5.56,0,0,1-1.33,4,4.85,4.85,0,0,1-3.72,1.43,5.17,5.17,0,0,1-2.64-.66,4.31,4.31,0,0,1-1.75-1.88,6.23,6.23,0,0,1-.61-2.85,5.59,5.59,0,0,1,1.32-4,4.88,4.88,0,0,1,3.73-1.41,5.27,5.27,0,0,1,2.64.65,4.4,4.4,0,0,1,1.75,1.87A6.23,6.23,0,0,1,174.84,34.48Zm-7.17,0a4.35,4.35,0,0,0,.51,2.33,1.81,1.81,0,0,0,1.65.78,1.77,1.77,0,0,0,1.62-.78,4.41,4.41,0,0,0,.5-2.33,4.31,4.31,0,0,0-.5-2.31,2.14,2.14,0,0,0-3.28,0A4.32,4.32,0,0,0,167.67,34.48Z"/><path class="cls-3" d="M186.57,39.68h-2.83V33.62a3,3,0,0,0-.4-1.68,1.47,1.47,0,0,0-1.27-.56,1.9,1.9,0,0,0-1.72.79,5,5,0,0,0-.53,2.63v4.88H177V29.31h2.16l.38,1.33h.16A3,3,0,0,1,181,29.5a4.36,4.36,0,0,1,1.88-.39,3.65,3.65,0,0,1,2.75,1,4,4,0,0,1,.94,2.83Z"/><path class="cls-3" d="M194.26,26.12h4.22a8.13,8.13,0,0,1,4.19.82,2.86,2.86,0,0,1,1.3,2.61,3.31,3.31,0,0,1-.57,2,2.29,2.29,0,0,1-1.52.93v.1a3,3,0,0,1,1.86,1.07,3.53,3.53,0,0,1,.57,2.1A3.42,3.42,0,0,1,203,38.64a5.73,5.73,0,0,1-3.64,1h-5.07Zm2.87,5.37h1.67a3.09,3.09,0,0,0,1.7-.36,1.35,1.35,0,0,0,.52-1.2,1.21,1.21,0,0,0-.57-1.12,3.72,3.72,0,0,0-1.8-.34h-1.52Zm0,2.28v3.54H199a2.73,2.73,0,0,0,1.75-.46,1.66,1.66,0,0,0,.57-1.39c0-1.13-.81-1.69-2.41-1.69Z"/><path class="cls-3" d="M214,39.68l-.38-1.33h-.15a2.89,2.89,0,0,1-1.29,1.12,4.31,4.31,0,0,1-1.9.4,3.64,3.64,0,0,1-2.76-1,3.93,3.93,0,0,1-.93-2.82V29.31h2.83v6.06a2.93,2.93,0,0,0,.4,1.68,1.44,1.44,0,0,0,1.27.56,1.9,1.9,0,0,0,1.72-.79,5,5,0,0,0,.53-2.63V29.31h2.83V39.68Z"/><path class="cls-3" d="M218.79,26.63c0-.92.51-1.38,1.54-1.38s1.54.46,1.54,1.38a1.32,1.32,0,0,1-.39,1,1.58,1.58,0,0,1-1.15.37C219.3,28,218.79,27.56,218.79,26.63Zm3,13.05h-2.83V29.31h2.83Z"/><path class="cls-3" d="M227.35,39.68h-2.83V25.25h2.83Z"/><path class="cls-3" d="M233.41,39.87a3.37,3.37,0,0,1-2.87-1.42,6.52,6.52,0,0,1-1-3.94,6.5,6.5,0,0,1,1.07-4,3.43,3.43,0,0,1,2.92-1.43,3.38,3.38,0,0,1,3,1.53h.09a11.88,11.88,0,0,1-.21-2.07V25.25h2.84V39.68H237l-.55-1.34h-.12A3.23,3.23,0,0,1,233.41,39.87Zm1-2.26A1.91,1.91,0,0,0,236,37a3.63,3.63,0,0,0,.55-2.14v-.31a4.26,4.26,0,0,0-.51-2.39,1.91,1.91,0,0,0-1.68-.72,1.65,1.65,0,0,0-1.47.8,4.35,4.35,0,0,0-.52,2.33,4.09,4.09,0,0,0,.53,2.3A1.72,1.72,0,0,0,234.4,37.61Z"/><path class="cls-3" d="M241.84,26.63c0-.92.51-1.38,1.54-1.38s1.54.46,1.54,1.38a1.32,1.32,0,0,1-.39,1,1.58,1.58,0,0,1-1.15.37C242.35,28,241.84,27.56,241.84,26.63Zm2.95,13.05H242V29.31h2.83Z"/><path class="cls-3" d="M257.14,39.68h-2.83V33.62a2.87,2.87,0,0,0-.4-1.68,1.45,1.45,0,0,0-1.27-.56,1.92,1.92,0,0,0-1.72.79,5,5,0,0,0-.52,2.63v4.88h-2.83V29.31h2.16l.38,1.33h.16a3,3,0,0,1,1.3-1.14,4.37,4.37,0,0,1,1.89-.39,3.62,3.62,0,0,1,2.74,1,3.93,3.93,0,0,1,.94,2.83Z"/><path class="cls-3" d="M268.89,29.31v1.44l-1.62.42a2.86,2.86,0,0,1,.44,1.55,3.18,3.18,0,0,1-1.16,2.61,5.08,5.08,0,0,1-3.24.93l-.51,0-.41,0a1,1,0,0,0-.44.75c0,.4.52.61,1.56.61h1.76a4,4,0,0,1,2.6.73,2.62,2.62,0,0,1,.9,2.15,3.18,3.18,0,0,1-1.52,2.82,7.86,7.86,0,0,1-4.35,1,6.06,6.06,0,0,1-3.32-.76,2.41,2.41,0,0,1-1.15-2.12A2.23,2.23,0,0,1,259,39.8a3.32,3.32,0,0,1,1.72-.9,1.79,1.79,0,0,1-.77-.61,1.47,1.47,0,0,1-.32-.89,1.44,1.44,0,0,1,.34-1,3.89,3.89,0,0,1,1-.77,2.82,2.82,0,0,1-1.3-1.14,3.4,3.4,0,0,1-.48-1.83A3.25,3.25,0,0,1,260.32,30a4.75,4.75,0,0,1,3.15-.93,8.71,8.71,0,0,1,1,.08l.76.12Zm-8,11.84a1,1,0,0,0,.57.92,3.08,3.08,0,0,0,1.57.33A5.52,5.52,0,0,0,265.4,42a1.26,1.26,0,0,0,.86-1.14.81.81,0,0,0-.51-.81,4.33,4.33,0,0,0-1.57-.22h-1.47a2.17,2.17,0,0,0-1.3.37A1.13,1.13,0,0,0,260.88,41.15Zm1-8.44A2.08,2.08,0,0,0,262.3,34a1.4,1.4,0,0,0,1.17.49,1.37,1.37,0,0,0,1.17-.49,2.14,2.14,0,0,0,.37-1.33c0-1.25-.51-1.88-1.54-1.88S261.91,31.46,261.91,32.71Z"/><path class="cls-3" d="M273.18,37.69a28.06,28.06,0,0,1-1.63,4.44h-2c.4-1.64.71-3.2.93-4.66H273Z"/><path class="cls-3" d="M291.74,26.12v8.77a5.06,5.06,0,0,1-.68,2.64,4.32,4.32,0,0,1-1.94,1.73,6.85,6.85,0,0,1-3,.61,5.78,5.78,0,0,1-4.06-1.34,4.79,4.79,0,0,1-1.45-3.67V26.12h2.87v8.3a3.47,3.47,0,0,0,.63,2.3,2.63,2.63,0,0,0,2.09.74,2.55,2.55,0,0,0,2-.74,3.48,3.48,0,0,0,.64-2.32V26.12Z"/><path class="cls-3" d="M300.43,29.11a4.22,4.22,0,0,1,1,.09l-.21,2.65a3.37,3.37,0,0,0-.84-.09,3,3,0,0,0-2.11.69,2.55,2.55,0,0,0-.76,1.95v5.28h-2.83V29.31h2.15l.42,1.74h.13a3.92,3.92,0,0,1,1.31-1.4A3.18,3.18,0,0,1,300.43,29.11Z"/><path class="cls-3" d="M308.85,29.11a3.35,3.35,0,0,1,2.88,1.44,6.57,6.57,0,0,1,1,3.93,6.5,6.5,0,0,1-1.07,4,3.48,3.48,0,0,1-2.92,1.41,3.43,3.43,0,0,1-2.87-1.33h-.19l-.47,1.14h-2.17V25.25h2.83V28.6c0,.43,0,1.11-.11,2h.11A3.28,3.28,0,0,1,308.85,29.11Zm-.91,2.27a1.8,1.8,0,0,0-1.53.64,3.7,3.7,0,0,0-.5,2.13v.31a4.36,4.36,0,0,0,.5,2.39,1.77,1.77,0,0,0,1.57.73,1.59,1.59,0,0,0,1.39-.81,4.35,4.35,0,0,0,.51-2.33,4.1,4.1,0,0,0-.52-2.3A1.62,1.62,0,0,0,307.94,31.38Z"/><path class="cls-3" d="M321.5,39.68,321,38.27h-.08a4.06,4.06,0,0,1-1.47,1.25,4.76,4.76,0,0,1-2,.35,3.17,3.17,0,0,1-2.35-.86,3.29,3.29,0,0,1-.86-2.43,2.72,2.72,0,0,1,1.15-2.43,6.69,6.69,0,0,1,3.49-.87l1.8-.06v-.45a1.42,1.42,0,0,0-1.62-1.58,7.36,7.36,0,0,0-2.92.75L315.19,30a8.52,8.52,0,0,1,4-.93,4.94,4.94,0,0,1,3.2.91,3.34,3.34,0,0,1,1.11,2.76v6.91Zm-.83-4.8-1.1,0a3.55,3.55,0,0,0-1.83.45,1.37,1.37,0,0,0-.61,1.24q0,1.2,1.38,1.2a2.16,2.16,0,0,0,1.57-.57,2,2,0,0,0,.59-1.5Z"/><path class="cls-3" d="M335.78,39.68H333V33.62a3,3,0,0,0-.4-1.68,1.47,1.47,0,0,0-1.27-.56,1.91,1.91,0,0,0-1.72.79A5,5,0,0,0,329,34.8v4.88H326.2V29.31h2.16l.38,1.33h.16a3,3,0,0,1,1.31-1.14,4.36,4.36,0,0,1,1.88-.39,3.65,3.65,0,0,1,2.75,1,4,4,0,0,1,.94,2.83Z"/><path class="cls-3" d="M351.77,39.68l-1-3.23h-5l-1,3.23h-3.1l4.79-13.62h3.51l4.81,13.62ZM350.1,34c-.91-2.92-1.42-4.58-1.53-5s-.2-.69-.25-.91c-.2.79-.79,2.75-1.75,5.87Z"/><path class="cls-3" d="M361.9,31.43h-2.45v8.25h-2.83V31.43h-1.56V30.07l1.56-.76v-.76a3.4,3.4,0,0,1,.87-2.59,4,4,0,0,1,2.79-.82,7.28,7.28,0,0,1,2.61.44l-.72,2.08a5.29,5.29,0,0,0-1.58-.27,1,1,0,0,0-.87.36,1.45,1.45,0,0,0-.27.91v.65h2.45Zm7.35,0H366.8v8.25H364V31.43h-1.56V30.07l1.56-.76v-.76a3.4,3.4,0,0,1,.87-2.59,4,4,0,0,1,2.79-.82,7.28,7.28,0,0,1,2.61.44l-.73,2.08a5.23,5.23,0,0,0-1.57-.27,1,1,0,0,0-.88.36,1.45,1.45,0,0,0-.27.91v.65h2.45Z"/><path class="cls-3" d="M377.27,39.68l-.55-1.41h-.08a4.06,4.06,0,0,1-1.47,1.25,4.76,4.76,0,0,1-2,.35,3.19,3.19,0,0,1-2.35-.86,3.29,3.29,0,0,1-.86-2.43,2.73,2.73,0,0,1,1.16-2.43,6.65,6.65,0,0,1,3.48-.87l1.8-.06v-.45a1.41,1.41,0,0,0-1.61-1.58,7.4,7.4,0,0,0-2.93.75L371,30a8.45,8.45,0,0,1,4-.93,4.92,4.92,0,0,1,3.2.91,3.34,3.34,0,0,1,1.11,2.76v6.91Zm-.84-4.8-1.09,0a3.56,3.56,0,0,0-1.84.45,1.39,1.39,0,0,0-.6,1.24c0,.8.45,1.2,1.37,1.2a2.16,2.16,0,0,0,1.57-.57,2,2,0,0,0,.59-1.5Z"/><path class="cls-3" d="M381.84,26.63c0-.92.52-1.38,1.54-1.38s1.54.46,1.54,1.38a1.31,1.31,0,0,1-.38,1,1.6,1.6,0,0,1-1.16.37C382.36,28,381.84,27.56,381.84,26.63Zm3,13.05H382V29.31h2.83Z"/><path class="cls-3" d="M393.36,29.11a4.29,4.29,0,0,1,1,.09l-.22,2.65a3.23,3.23,0,0,0-.83-.09,3,3,0,0,0-2.11.69,2.52,2.52,0,0,0-.76,1.95v5.28h-2.83V29.31h2.15l.41,1.74h.14a3.83,3.83,0,0,1,1.31-1.4A3.16,3.16,0,0,1,393.36,29.11Z"/><path class="cls-3" d="M403.25,36.6A2.84,2.84,0,0,1,402.14,39a5.47,5.47,0,0,1-3.32.84,9.74,9.74,0,0,1-1.93-.16,7,7,0,0,1-1.49-.45V36.93a10.76,10.76,0,0,0,1.77.62,7.58,7.58,0,0,0,1.75.25c1,0,1.53-.3,1.53-.89a.71.71,0,0,0-.2-.54,3.16,3.16,0,0,0-.7-.48c-.34-.17-.78-.38-1.34-.62a8.58,8.58,0,0,1-1.76-.92,2.69,2.69,0,0,1-.82-1,3.24,3.24,0,0,1-.25-1.36,2.48,2.48,0,0,1,1.07-2.14,5.27,5.27,0,0,1,3-.76,8.74,8.74,0,0,1,3.65.82l-.86,2c-.52-.22-1-.4-1.45-.55a4.73,4.73,0,0,0-1.39-.21c-.83,0-1.25.23-1.25.68a.83.83,0,0,0,.4.66,11.26,11.26,0,0,0,1.77.82,8.32,8.32,0,0,1,1.78.92,2.76,2.76,0,0,1,.84,1A3.07,3.07,0,0,1,403.25,36.6Z"/><path class="cls-3" d="M82,63.68l-.55-1.41h-.07a4.23,4.23,0,0,1-1.47,1.25,4.79,4.79,0,0,1-2,.35A3.17,3.17,0,0,1,75.57,63a3.25,3.25,0,0,1-.86-2.43,2.72,2.72,0,0,1,1.15-2.43,6.67,6.67,0,0,1,3.49-.87l1.8-.06v-.45a1.42,1.42,0,0,0-1.62-1.58,7.36,7.36,0,0,0-2.92.75L75.67,54a8.51,8.51,0,0,1,4-.93,4.92,4.92,0,0,1,3.2.91A3.32,3.32,0,0,1,84,56.77v6.91Zm-.83-4.8-1.1,0a3.62,3.62,0,0,0-1.84.45,1.39,1.39,0,0,0-.6,1.24c0,.8.46,1.2,1.37,1.2a2.19,2.19,0,0,0,1.58-.57,2,2,0,0,0,.59-1.5Z"/><path class="cls-3" d="M96.25,63.68H93.42V57.62A3,3,0,0,0,93,55.94a1.47,1.47,0,0,0-1.28-.56,1.89,1.89,0,0,0-1.71.79,5,5,0,0,0-.53,2.63v4.88H86.68V53.31h2.16l.38,1.33h.16a3.06,3.06,0,0,1,1.3-1.14,4.44,4.44,0,0,1,1.89-.39,3.65,3.65,0,0,1,2.75,1,4,4,0,0,1,.93,2.83Z"/><path class="cls-3" d="M102.26,63.87a3.39,3.39,0,0,1-2.87-1.42,6.52,6.52,0,0,1-1-3.94,6.51,6.51,0,0,1,1.06-4,3.45,3.45,0,0,1,2.93-1.43,3.36,3.36,0,0,1,3,1.53h.1a11.07,11.07,0,0,1-.22-2.07V49.25H108V63.68h-2.17l-.55-1.34h-.12A3.23,3.23,0,0,1,102.26,63.87Zm1-2.26a1.93,1.93,0,0,0,1.6-.63,3.7,3.7,0,0,0,.55-2.14v-.31a4.17,4.17,0,0,0-.52-2.39,1.91,1.91,0,0,0-1.67-.72,1.65,1.65,0,0,0-1.47.8,4.25,4.25,0,0,0-.53,2.33,4.09,4.09,0,0,0,.53,2.3A1.72,1.72,0,0,0,103.25,61.61Z"/><path class="cls-3" d="M123.79,59.92a3.52,3.52,0,0,1-1.33,2.89,5.75,5.75,0,0,1-3.67,1.06,8.61,8.61,0,0,1-3.85-.82V60.38a15.89,15.89,0,0,0,2.33.86,6.7,6.7,0,0,0,1.74.25,2.48,2.48,0,0,0,1.45-.36,1.23,1.23,0,0,0,.5-1.08,1.19,1.19,0,0,0-.22-.71,2.53,2.53,0,0,0-.65-.59,15.86,15.86,0,0,0-1.76-.92,8.5,8.5,0,0,1-1.86-1.12,4.19,4.19,0,0,1-1-1.26,3.64,3.64,0,0,1-.37-1.67A3.52,3.52,0,0,1,116.32,51a5.1,5.1,0,0,1,3.37-1,8.28,8.28,0,0,1,2,.25,14.77,14.77,0,0,1,2,.71l-.93,2.23a15,15,0,0,0-1.79-.62,6.23,6.23,0,0,0-1.4-.17,1.82,1.82,0,0,0-1.25.38,1.25,1.25,0,0,0-.44,1,1.21,1.21,0,0,0,.18.66,2,2,0,0,0,.56.55,17.18,17.18,0,0,0,1.82,1,7.42,7.42,0,0,1,2.61,1.82A3.58,3.58,0,0,1,123.79,59.92Z"/><path class="cls-3" d="M131.53,63.87a3.43,3.43,0,0,1-2.87-1.33h-.15q.15,1.3.15,1.5v4.21h-2.83V53.31h2.3l.4,1.34h.13a3.28,3.28,0,0,1,2.94-1.54,3.39,3.39,0,0,1,2.88,1.42,6.6,6.6,0,0,1,1,3.95,7.85,7.85,0,0,1-.49,2.88,4,4,0,0,1-1.39,1.87A3.59,3.59,0,0,1,131.53,63.87Zm-.84-8.49a1.78,1.78,0,0,0-1.53.64,3.7,3.7,0,0,0-.5,2.13v.31a4.36,4.36,0,0,0,.5,2.39,1.77,1.77,0,0,0,1.57.73c1.27,0,1.9-1,1.9-3.14a4.52,4.52,0,0,0-.47-2.3A1.59,1.59,0,0,0,130.69,55.38Z"/><path class="cls-3" d="M144.25,63.68l-.55-1.41h-.07a4.23,4.23,0,0,1-1.47,1.25,4.76,4.76,0,0,1-2,.35,3.17,3.17,0,0,1-2.35-.86,3.25,3.25,0,0,1-.86-2.43,2.72,2.72,0,0,1,1.15-2.43,6.67,6.67,0,0,1,3.49-.87l1.8-.06v-.45a1.42,1.42,0,0,0-1.62-1.58,7.36,7.36,0,0,0-2.92.75L137.94,54a8.51,8.51,0,0,1,4-.93,4.92,4.92,0,0,1,3.2.91,3.32,3.32,0,0,1,1.12,2.76v6.91Zm-.83-4.8-1.1,0a3.62,3.62,0,0,0-1.84.45,1.39,1.39,0,0,0-.6,1.24c0,.8.46,1.2,1.37,1.2a2.19,2.19,0,0,0,1.58-.57,2,2,0,0,0,.59-1.5Z"/><path class="cls-3" d="M153.32,61.61a6.34,6.34,0,0,0,1.78-.32v2.1a6.26,6.26,0,0,1-2.6.48A3.19,3.19,0,0,1,150,63a3.72,3.72,0,0,1-.77-2.58v-5H147.9V54.24l1.56-1,.82-2.19h1.81v2.21H155v2.12h-2.9v5a1.14,1.14,0,0,0,.33.9A1.36,1.36,0,0,0,153.32,61.61Z"/><path class="cls-3" d="M156.89,50.63c0-.92.51-1.38,1.54-1.38s1.54.46,1.54,1.38a1.32,1.32,0,0,1-.39,1,1.58,1.58,0,0,1-1.15.37C157.4,52,156.89,51.56,156.89,50.63Zm3,13H157V53.31h2.83Z"/><path class="cls-3" d="M169.2,63.68l-.54-1.41h-.08a4.06,4.06,0,0,1-1.47,1.25,4.76,4.76,0,0,1-2,.35,3.17,3.17,0,0,1-2.35-.86,3.29,3.29,0,0,1-.86-2.43,2.72,2.72,0,0,1,1.15-2.43,6.69,6.69,0,0,1,3.49-.87l1.8-.06v-.45a1.42,1.42,0,0,0-1.62-1.58,7.36,7.36,0,0,0-2.92.75L162.89,54a8.52,8.52,0,0,1,4-.93,4.94,4.94,0,0,1,3.2.91,3.34,3.34,0,0,1,1.11,2.76v6.91Zm-.83-4.8-1.1,0a3.55,3.55,0,0,0-1.83.45,1.37,1.37,0,0,0-.61,1.24q0,1.2,1.38,1.2a2.16,2.16,0,0,0,1.57-.57,2,2,0,0,0,.59-1.5Z"/><path class="cls-3" d="M176.73,63.68H173.9V49.25h2.83Z"/><path class="cls-3" d="M195.73,56.77a6.69,6.69,0,0,1-1.9,5.13,7.77,7.77,0,0,1-5.51,1.78h-3.84V50.12h4.26a7.19,7.19,0,0,1,5.16,1.75A6.46,6.46,0,0,1,195.73,56.77Zm-3,.07q0-4.37-3.86-4.37h-1.53v8.84h1.23Q192.75,61.31,192.75,56.84Z"/><path class="cls-3" d="M202.83,63.87a5.33,5.33,0,0,1-3.92-1.39,5.22,5.22,0,0,1-1.41-3.91,5.75,5.75,0,0,1,1.3-4,4.65,4.65,0,0,1,3.61-1.43,4.56,4.56,0,0,1,3.42,1.26,4.72,4.72,0,0,1,1.23,3.46V59.2h-6.69a2.74,2.74,0,0,0,.71,1.88,2.49,2.49,0,0,0,1.88.68,7.81,7.81,0,0,0,1.77-.19,8.79,8.79,0,0,0,1.74-.63v2.19a6.38,6.38,0,0,1-1.59.56A10,10,0,0,1,202.83,63.87Zm-.4-8.74a1.79,1.79,0,0,0-1.41.57,2.65,2.65,0,0,0-.59,1.62h4a2.31,2.31,0,0,0-.55-1.62A1.83,1.83,0,0,0,202.43,55.13Z"/><path class="cls-3" d="M211.63,63.68l-3.95-10.37h3l2,5.91a10.38,10.38,0,0,1,.41,2.12h.06a9.05,9.05,0,0,1,.42-2.12l2-5.91h3l-4,10.37Z"/><path class="cls-3" d="M224.48,63.87a5.33,5.33,0,0,1-3.92-1.39,5.22,5.22,0,0,1-1.41-3.91,5.75,5.75,0,0,1,1.31-4,4.64,4.64,0,0,1,3.6-1.43,4.53,4.53,0,0,1,3.42,1.26,4.72,4.72,0,0,1,1.23,3.46V59.2H222a2.74,2.74,0,0,0,.71,1.88,2.49,2.49,0,0,0,1.88.68,7.81,7.81,0,0,0,1.77-.19,8.36,8.36,0,0,0,1.74-.63v2.19a6.45,6.45,0,0,1-1.58.56A10,10,0,0,1,224.48,63.87Zm-.4-8.74a1.79,1.79,0,0,0-1.41.57,2.65,2.65,0,0,0-.59,1.62h4a2.41,2.41,0,0,0-.55-1.62A1.85,1.85,0,0,0,224.08,55.13Z"/><path class="cls-3" d="M233.65,63.68h-2.83V49.25h2.83Z"/><path class="cls-3" d="M245.85,58.48a5.56,5.56,0,0,1-1.33,4,4.85,4.85,0,0,1-3.72,1.43,5.17,5.17,0,0,1-2.64-.66,4.31,4.31,0,0,1-1.75-1.88,6.23,6.23,0,0,1-.61-2.85,5.59,5.59,0,0,1,1.32-4,4.88,4.88,0,0,1,3.73-1.41,5.27,5.27,0,0,1,2.64.65,4.4,4.4,0,0,1,1.75,1.87A6.23,6.23,0,0,1,245.85,58.48Zm-7.17,0a4.35,4.35,0,0,0,.51,2.33,1.81,1.81,0,0,0,1.64.78,1.78,1.78,0,0,0,1.63-.78,4.41,4.41,0,0,0,.5-2.33,4.31,4.31,0,0,0-.5-2.31,2.14,2.14,0,0,0-3.28,0A4.32,4.32,0,0,0,238.68,58.48Z"/><path class="cls-3" d="M253.7,63.87a3.43,3.43,0,0,1-2.87-1.33h-.15q.15,1.3.15,1.5v4.21H248V53.31h2.3l.4,1.34h.13a3.28,3.28,0,0,1,2.94-1.54,3.38,3.38,0,0,1,2.88,1.42,6.6,6.6,0,0,1,1,3.95,7.65,7.65,0,0,1-.49,2.88,4,4,0,0,1-1.39,1.87A3.59,3.59,0,0,1,253.7,63.87Zm-.84-8.49a1.78,1.78,0,0,0-1.53.64,3.7,3.7,0,0,0-.5,2.13v.31a4.36,4.36,0,0,0,.5,2.39,1.77,1.77,0,0,0,1.57.73c1.27,0,1.9-1,1.9-3.14a4.42,4.42,0,0,0-.47-2.3A1.59,1.59,0,0,0,252.86,55.38Z"/><path class="cls-3" d="M269.12,63.68h-2.83V57.62a3.06,3.06,0,0,0-.37-1.68,1.34,1.34,0,0,0-1.19-.56,1.68,1.68,0,0,0-1.57.8,5.18,5.18,0,0,0-.49,2.62v4.88h-2.83V53.31H262l.38,1.33h.16a2.83,2.83,0,0,1,1.2-1.12,3.92,3.92,0,0,1,1.81-.41,3.27,3.27,0,0,1,3.16,1.53H269a2.74,2.74,0,0,1,1.22-1.13,4.25,4.25,0,0,1,1.84-.4,3.62,3.62,0,0,1,2.66.91,3.94,3.94,0,0,1,.91,2.9v6.76h-2.84V57.62a3,3,0,0,0-.38-1.68,1.32,1.32,0,0,0-1.18-.56,1.77,1.77,0,0,0-1.55.74,4.17,4.17,0,0,0-.52,2.36Z"/><path class="cls-3" d="M283,63.87a5.33,5.33,0,0,1-3.92-1.39,5.22,5.22,0,0,1-1.41-3.91,5.75,5.75,0,0,1,1.31-4,4.61,4.61,0,0,1,3.6-1.43A4.54,4.54,0,0,1,286,54.37a4.72,4.72,0,0,1,1.23,3.46V59.2h-6.69a2.74,2.74,0,0,0,.71,1.88,2.49,2.49,0,0,0,1.88.68,7.81,7.81,0,0,0,1.77-.19,8.36,8.36,0,0,0,1.74-.63v2.19a6.45,6.45,0,0,1-1.58.56A10.11,10.11,0,0,1,283,63.87Zm-.4-8.74a1.79,1.79,0,0,0-1.41.57,2.65,2.65,0,0,0-.59,1.62h4A2.36,2.36,0,0,0,284,55.7,1.87,1.87,0,0,0,282.6,55.13Z"/><path class="cls-3" d="M298.91,63.68h-2.83V57.62a2.87,2.87,0,0,0-.4-1.68,1.45,1.45,0,0,0-1.27-.56,1.89,1.89,0,0,0-1.71.79,4.86,4.86,0,0,0-.53,2.63v4.88h-2.83V53.31h2.16l.38,1.33H292a3,3,0,0,1,1.3-1.14,4.37,4.37,0,0,1,1.89-.39,3.65,3.65,0,0,1,2.75,1,4,4,0,0,1,.93,2.83Z"/><path class="cls-3" d="M306,61.61a6.4,6.4,0,0,0,1.79-.32v2.1a6.32,6.32,0,0,1-2.6.48,3.17,3.17,0,0,1-2.47-.86,3.72,3.72,0,0,1-.78-2.58v-5h-1.35V54.24l1.56-1L303,51.1h1.81v2.21h2.9v2.12h-2.9v5a1.11,1.11,0,0,0,.34.9A1.32,1.32,0,0,0,306,61.61Z"/></g></svg>